#!OML:ASF H:\Dans Jumps\Project 1\Capture day 1\Session 1\subject.ASF
:FULLY-SPECIFIED
:DEGREES
492
root 1.02708 17.6577 13.1932 6.15235 4.47199 -2.5882
lowerback -5.41987 -0.891701 0.715522
upperback 0.216315 -1.2904 1.68753
thorax 3.28564 -0.643851 1.23193
lowerneck -11.5967 -4.93361 -5.05304
upperneck 13.0556 -6.58772 5.17919
head 6.20689 -3.04906 1.87985
rclavicle -1.09829e-014 -2.127e-014
rhumerus -25.6402 -17.2541 -82.4388
rradius 21.995
rwrist 41.8751
rhand -19.2396 -25.4899
rfingers 7.12502
rthumb 7.07383 -55.3517
lclavicle -1.09829e-014 -2.127e-014
lhumerus -23.9516 -1.37045 90.7634
lradius 17.2747
lwrist -0.477916
lhand -23.8893 -4.97676
lfingers 7.12502
lthumb 2.58425 24.9873
rfemur -11.6172 -4.01208 21.9881
rtibia 20.2083
rfoot -14.3188 1.02402
rtoes 17.0373
lfemur -6.98953 7.51414 -16.4303
ltibia 15.8766
lfoot -11.9966 6.42027
ltoes -6.90765
493
root 1.02734 17.6577 13.19 6.1368 4.40643 -2.56307
lowerback -5.4044 -0.901563 0.703808
upperback 0.212358 -1.30254 1.68997
thorax 3.27338 -0.650126 1.24029
lowerneck -11.566 -4.92655 -5.03208
upperneck 13.0239 -6.57421 5.13086
head 6.1885 -3.04603 1.8633
rclavicle 1.15295e-014 1.59028e-015
rhumerus -25.6961 -17.3015 -82.3926
rradius 21.9957
rwrist 41.8409
rhand -19.2136 -25.4733
rfingers 7.12502
rthumb 7.09899 -55.3342
lclavicle 1.15295e-014 1.59028e-015
lhumerus -24.039 -1.16895 90.7399
lradius 17.1038
lwrist -0.85842
lhand -23.8485 -5.03313
lfingers 7.12502
lthumb 2.6237 24.9305
rfemur -11.6302 -4.00782 21.9545
rtibia 20.2366
rfoot -14.3199 1.07808
rtoes 17.056
lfemur -6.95161 7.53608 -16.4629
ltibia 15.8434
lfoot -11.976 6.4504
ltoes -6.90085
494
root 1.02765 17.6576 13.1869 6.11956 4.34122 -2.53875
lowerback -5.39176 -0.910693 0.695074
upperback 0.209589 -1.31391 1.69069
thorax 3.26383 -0.655952 1.24521
lowerneck -11.5216 -4.92448 -5.015
upperneck 12.9845 -6.56776 5.08697
head 6.16599 -3.04654 1.84846
rclavicle -9.29318e-015 -2.08724e-014
rhumerus -25.754 -17.3456 -82.3501
rradius 21.9984
rwrist 41.8051
rhand -19.1765 -25.469
rfingers 7.12502
rthumb 7.13475 -55.3287
lclavicle -9.29318e-015 -2.08724e-014
lhumerus -24.1194 -0.963545 90.7091
lradius 16.9285
lwrist -1.26549
lhand -23.8402 -5.18163
lfingers 7.12502
lthumb 2.63166 24.7819
rfemur -11.6415 -4.00122 21.9213
rtibia 20.2663
rfoot -14.3221 1.13124
rtoes 17.0701
lfemur -6.90873 7.55603 -16.4946
ltibia 15.8037
lfoot -11.952 6.48052
ltoes -6.88839
495
root 1.02818 17.6575 13.1841 6.10255 4.27733 -2.51041
lowerback -5.38801 -0.919462 0.686831
upperback 0.212303 -1.32497 1.68736
thorax 3.26482 -0.661575 1.24554
lowerneck -11.4751 -4.92364 -4.99969
upperneck 12.9419 -6.56384 5.0507
head 6.14258 -3.04782 1.83617
rclavicle 8.70925e-015 2.3059e-014
rhumerus -25.8017 -17.4009 -82.3124
rradius 21.9965
rwrist 41.7812
rhand -19.1288 -25.4782
rfingers 7.12502
rthumb 7.18081 -55.3364
lclavicle 8.70925e-015 2.3059e-014
lhumerus -24.1825 -0.778182 90.6779
lradius 16.7518
lwrist -1.65493
lhand -23.8517 -5.35002
lfingers 7.12502
lthumb 2.62063 24.6136
rfemur -11.651 -4.00206 21.8824
rtibia 20.295
rfoot -14.3231 1.1915
rtoes 17.1107
lfemur -6.86339 7.57693 -16.5315
ltibia 15.7611
lfoot -11.9266 6.5093
ltoes -6.88328
496
root 1.02871 17.6574 13.1813 6.08615 4.21374 -2.48482
lowerback -5.39174 -0.926887 0.683475
upperback 0.220531 -1.33472 1.68218
thorax 3.27554 -0.66645 1.24117
lowerneck -11.4296 -4.92263 -4.99282
upperneck 12.8978 -6.56087 5.03227
head 6.11984 -3.0486 1.83078
rclavicle -2.13197e-014 7.7526e-015
rhumerus -25.8318 -17.4781 -82.2797
rradius 21.9848
rwrist 41.7729
rhand -19.0727 -25.4922
rfingers 7.12502
rthumb 7.23497 -55.3485
lclavicle -2.13197e-014 7.7526e-015
lhumerus -24.2301 -0.628831 90.6517
lradius 16.5822
lwrist -1.9919
lhand -23.8695 -5.50693
lfingers 7.12502
lthumb 2.60336 24.4569
rfemur -11.6588 -3.99733 21.8466
rtibia 20.3194
rfoot -14.322 1.24616
rtoes 17.1479
lfemur -6.82029 7.59948 -16.5651
ltibia 15.7211
lfoot -11.9023 6.53486
ltoes -6.87183
497
root 1.0293 17.6574 13.1786 6.07222 4.1522 -2.46321
lowerback -5.40299 -0.932507 0.687653
upperback 0.232601 -1.34268 1.67484
thorax 3.29419 -0.670282 1.23033
lowerneck -11.3901 -4.92184 -4.98602
upperneck 12.8544 -6.55908 5.02111
head 6.09865 -3.04927 1.82747
rclavicle 1.18153e-014 2.98177e-015
rhumerus -25.8482 -17.5679 -82.2523
rradius 21.9646
rwrist 41.7724
rhand -19.0125 -25.5083
rfingers 7.12502
rthumb 7.29304 -55.3626
lclavicle 1.18153e-014 2.98177e-015
lhumerus -24.2656 -0.521599 90.6336
lradius 16.4279
lwrist -2.25608
lhand -23.8778 -5.61056
lfingers 7.12502
lthumb 2.59539 24.3534
rfemur -11.6668 -3.99044 21.8153
rtibia 20.3393
rfoot -14.3186 1.29841
rtoes 17.1949
lfemur -6.78177 7.62226 -16.5944
ltibia 15.684
lfoot -11.8797 6.55728
ltoes -6.85552
498
root 1.02993 17.6574 13.176 6.06026 4.09375 -2.44695
lowerback -5.42051 -0.938035 0.69877
upperback 0.249156 -1.35114 1.66702
thorax 3.32083 -0.674234 1.21493
lowerneck -11.3564 -4.91967 -4.98543
upperneck 12.8044 -6.55629 5.02628
head 6.07711 -3.04848 1.83033
rclavicle 8.53532e-015 0
rhumerus -25.8513 -17.664 -82.2304
rradius 21.9398
rwrist 41.778
rhand -18.9575 -25.5075
rfingers 7.12502
rthumb 7.34615 -55.3599
lclavicle 8.53532e-015 0
lhumerus -24.294 -0.429534 90.6175
lradius 16.3015
lwrist -2.46371
lhand -23.8704 -5.63938
lfingers 7.12502
lthumb 2.60253 24.3245
rfemur -11.6742 -3.98248 21.7903
rtibia 20.354
rfoot -14.3136 1.34593
rtoes 17.2278
lfemur -6.74743 7.64623 -16.6176
ltibia 15.6507
lfoot -11.8604 6.57681
ltoes -6.84059
499
root 1.03052 17.6575 13.1735 6.04938 4.03735 -2.43523
lowerback -5.4389 -0.94205 0.71475
upperback 0.263176 -1.35791 1.66019
thorax 3.34523 -0.677253 1.19796
lowerneck -11.3288 -4.91964 -4.98481
upperneck 12.7628 -6.55603 5.02808
head 6.05929 -3.04899 1.8317
rclavicle -4.17448e-015 -3.97569e-015
rhumerus -25.8608 -17.7455 -82.2081
rradius 21.9192
rwrist 41.7688
rhand -18.9081 -25.4865
rfingers 7.12502
rthumb 7.39386 -55.3372
lclavicle -4.17448e-015 -3.97569e-015
lhumerus -24.3301 -0.338692 90.6042
lradius 16.2078
lwrist -2.6228
lhand -23.8424 -5.57649
lfingers 7.12502
lthumb 2.62952 24.387
rfemur -11.6814 -3.96554 21.7713
rtibia 20.3648
rfoot -14.3071 1.3822
rtoes 17.2227
lfemur -6.71673 7.67018 -16.6352
ltibia 15.6199
lfoot -11.8438 6.59459
ltoes -6.82344
500
root 1.0312 17.6575 13.1711 6.03927 3.98367 -2.42546
lowerback -5.45883 -0.945135 0.733428
upperback 0.273853 -1.36359 1.654
thorax 3.36697 -0.679684 1.18022
lowerneck -11.3145 -4.92211 -4.9734
upperneck 12.7365 -6.5585 5.01278
head 6.04774 -3.05125 1.82528
rclavicle -1.66109e-014 -6.36111e-015
rhumerus -25.883 -17.8017 -82.1865
rradius 21.909
rwrist 41.7431
rhand -18.8652 -25.4581
rfingers 7.12502
rthumb 7.43531 -55.3074
lclavicle -1.66109e-014 -6.36111e-015
lhumerus -24.374 -0.232785 90.5891
lradius 16.1363
lwrist -2.77439
lhand -23.8227 -5.51398
lfingers 7.12502
lthumb 2.64854 24.4493
rfemur -11.6877 -3.95099 21.7541
rtibia 20.3739
rfoot -14.3009 1.41916
rtoes 17.1772
lfemur -6.68615 7.69371 -16.6508
ltibia 15.5881
lfoot -11.8287 6.61184
ltoes -6.81143
501
root 1.03194 17.6576 13.1688 6.03037 3.93156 -2.41368
lowerback -5.47909 -0.947831 0.749427
upperback 0.281467 -1.36852 1.64752
thorax 3.38578 -0.681779 1.16377
lowerneck -11.2981 -4.92354 -4.95693
upperneck 12.7106 -6.55979 4.99237
head 6.03556 -3.05311 1.81659
rclavicle 4.62174e-015 3.57812e-015
rhumerus -25.9189 -17.8315 -82.1664
rradius 21.9121
rwrist 41.7056
rhand -18.8213 -25.4252
rfingers 7.12502
rthumb 7.4776 -55.273
lclavicle 4.62174e-015 3.57812e-015
lhumerus -24.4281 -0.100767 90.5674
lradius 16.0889
lwrist -2.93308
lhand -23.8088 -5.45709
lfingers 7.12502
lthumb 2.66203 24.506
rfemur -11.6952 -3.93644 21.7345
rtibia 20.3836
rfoot -14.2942 1.45698
rtoes 17.1316
lfemur -6.65391 7.71213 -16.669
ltibia 15.5517
lfoot -11.8125 6.63254
ltoes -6.78946
502
root 1.0327 17.658 13.1665 6.02325 3.88127 -2.40264
lowerback -5.49837 -0.949932 0.764758
upperback 0.286237 -1.37257 1.64163
thorax 3.4011 -0.683448 1.1484
lowerneck -11.2748 -4.92403 -4.93778
upperneck 12.6773 -6.56001 4.97051
head 6.0197 -3.0546 1.80733
rclavicle -2.73329e-016 -1.98785e-016
rhumerus -25.9647 -17.8261 -82.152
rradius 21.9295
rwrist 41.6463
rhand -18.7787 -25.4025
rfingers 7.12502
rthumb 7.51878 -55.2488
lclavicle -2.73329e-016 -1.98785e-016
lhumerus -24.487 0.0422777 90.5434
lradius 16.0574
lwrist -3.0847
lhand -23.8032 -5.42993
lfingers 7.12502
lthumb 2.66742 24.5331
rfemur -11.7072 -3.92496 21.7164
rtibia 20.3955
rfoot -14.2874 1.49459
rtoes 17.0857
lfemur -6.61997 7.72625 -16.6865
ltibia 15.5072
lfoot -11.7922 6.65425
ltoes -6.75899
503
root 1.03343 17.6586 13.164 6.01762 3.83214 -2.38904
lowerback -5.51538 -0.951291 0.776586
upperback 0.290634 -1.3753 1.63396
thorax 3.41478 -0.684504 1.13331
lowerneck -11.2426 -4.92229 -4.91333
upperneck 12.6284 -6.55818 4.95108
head 5.9972 -3.05494 1.79848
rclavicle 1.11941e-014 -2.08724e-014
rhumerus -26.0105 -17.8069 -82.1436
rradius 21.9521
rwrist 41.5865
rhand -18.73 -25.4034
rfingers 7.12502
rthumb 7.56574 -55.2481
lclavicle 1.11941e-014 -2.08724e-014
lhumerus -24.5445 0.17839 90.5204
lradius 16.0398
lwrist -3.20908
lhand -23.8014 -5.42144
lfingers 7.12502
lthumb 2.6692 24.5416
rfemur -11.724 -3.91345 21.696
rtibia 20.4104
rfoot -14.2802 1.53016
rtoes 17.0723
lfemur -6.58353 7.73618 -16.707
ltibia 15.4535
lfoot -11.7655 6.67749
ltoes -6.72464
